<?xml version="1.0" encoding="UTF-8"?><svg id="Layer_1" xmlns="http://www.w3.org/2000/svg" viewBox="0 0 203 100"><defs><style>.cls-1{fill:#231f20;}</style></defs><path class="cls-1" d="m168.15,0C150.86,0,136.53,12.65,133.9,29.19c-1.42,8.54-2.98,15.54-5.97,23.41-.7,1.84-.52,3.96.95,5.43.94.94,2.17,1.41,3.4,1.41,3.05,0,4.84-.34,6.41,1.23,3.59,3.59-.08,10.64-.08,15.64,0,1.44.55,2.87,1.64,3.97,1.1,1.1,2.71,1.63,4.24,1.63,4.41,0,8.93-4.26,16.91-8.17,6-2.94,13.5-4.37,20.04-6.98,10.75-4.3,21.45-15.89,21.45-32.07C202.89,15.53,187.31,0,168.15,0Zm23.48,38.97c-.86.36-2.02.29-2.83-.44-.98-.89-2.33-4.87-5.83-10.26-2.62-4.03-4.52-5.61-6.58-8.33-1.18-1.55-1.24-3.81.27-4.86,2.94-2.05,6.51.23,8.14,1.79,4.32,4.15,7.6,13.05,8.18,19.69.1,1.11-.57,2.09-1.34,2.41Zm6.44-2.47c-.6.18-1.42-.21-1.61-1.43-1.15-7.38-3.79-14.75-7.9-19.38-1.31-1.47-1.7-3.25-.41-3.65,1.56-.48,3.22.2,4.76,2.23,5.75,7.53,6.55,16.13,6.2,20.39-.1,1.16-.37,1.64-1.04,1.84Z"/><path class="cls-1" d="m137.78,97.13c-2.7,2.7-8.49,4.12-11.19,1.42-2.29-2.29-1.27-8.49,1.42-11.19,2.7-2.69,7.07-2.69,9.76,0,2.69,2.7,2.69,7.07,0,9.76Z"/><path class="cls-1" d="m15.64,24.16v5.59h9.18c-.03.97-.2,1.88-.51,2.73-.35.94-.88,1.75-1.58,2.44-.7.69-1.59,1.23-2.66,1.61-1.07.38-2.32.57-3.76.57-1.85,0-3.48-.39-4.9-1.17-1.42-.78-2.54-1.95-3.34-3.52-.81-1.57-1.21-3.48-1.21-5.74s.37-4.16,1.1-5.81c.73-1.64,1.8-2.92,3.21-3.83s3.14-1.36,5.19-1.36c1.82,0,3.44.42,4.86,1.25,1.42.84,2.35,2.15,2.79,3.94h6.73c-.26-2.26-1.05-4.23-2.35-5.92-1.31-1.69-2.98-2.98-5.04-3.89-2.05-.91-4.34-1.36-6.86-1.36-3.28,0-6.15.72-8.6,2.16-2.45,1.44-4.35,3.42-5.72,5.94C.79,20.3.11,23.19.11,26.45s.66,6.25,1.98,8.73c1.32,2.48,3.14,4.41,5.45,5.78,2.32,1.38,4.98,2.07,8.01,2.07,1.52,0,2.96-.2,4.31-.59,1.35-.4,2.51-.94,3.5-1.63.67-.47,1.21-.99,1.64-1.57l.36,3.3h5.45v-18.39h-15.17Z"/><path class="cls-1" d="m41.44,42.83h-6.03V9.89h6.07v13.64c.67-1,1.62-1.78,2.84-2.35,1.22-.57,2.57-.86,4.07-.86,2.64,0,4.67.8,6.09,2.4s2.13,3.82,2.13,6.66v13.46h-6.07v-12.05c0-1.06-.18-1.95-.53-2.68-.35-.73-.84-1.3-1.45-1.69-.62-.4-1.36-.59-2.24-.59-1,0-1.86.21-2.57.64-.72.43-1.28,1.02-1.69,1.78-.41.76-.62,1.64-.62,2.64v11.96Z"/><path class="cls-1" d="m60.22,31.52c0-2.29.51-4.3,1.54-6.05,1.03-1.74,2.43-3.1,4.22-4.07,1.79-.97,3.84-1.45,6.16-1.45s4.32.48,6.09,1.45c1.77.97,3.17,2.33,4.2,4.07,1.03,1.74,1.54,3.76,1.54,6.05s-.51,4.29-1.54,6c-1.03,1.72-2.43,3.06-4.2,4.02-1.77.97-3.8,1.45-6.09,1.45s-4.37-.48-6.16-1.45c-1.79-.97-3.2-2.31-4.22-4.02-1.03-1.72-1.54-3.72-1.54-6Zm6.11-.04c0,1.2.25,2.27.75,3.19.5.92,1.18,1.64,2.05,2.13.86.5,1.87.75,3.01.75s2.14-.25,2.99-.75c.85-.5,1.52-1.21,2-2.13.48-.92.73-1.99.73-3.19s-.24-2.3-.73-3.21-1.15-1.61-2-2.11c-.85-.5-1.85-.75-2.99-.75s-2.15.25-3.01.75c-.87.5-1.55,1.2-2.05,2.11-.5.91-.75,1.98-.75,3.21Z"/><path class="cls-1" d="m86.53,35.77h5.72c.06.85.4,1.52,1.01,2.02.62.5,1.48.75,2.6.75,1.17,0,2.04-.21,2.62-.62.57-.41.86-.95.86-1.63,0-.44-.15-.84-.44-1.19-.29-.35-.89-.63-1.8-.84l-3.96-.88c-1.99-.47-3.48-1.19-4.46-2.16-.98-.97-1.47-2.38-1.47-4.22,0-1.47.39-2.72,1.17-3.76.78-1.04,1.83-1.84,3.17-2.4s2.87-.84,4.6-.84,3.14.29,4.4.88c1.26.59,2.25,1.42,2.97,2.51.72,1.09,1.08,2.36,1.08,3.83h-5.76c0-.85-.26-1.52-.77-2.02-.51-.5-1.24-.75-2.18-.75s-1.62.21-2.13.62c-.51.41-.77.97-.77,1.67,0,1.09.85,1.82,2.55,2.2l4,.88c1.85.41,3.24,1.08,4.18,2,.94.92,1.41,2.24,1.41,3.94,0,1.5-.4,2.8-1.21,3.92-.81,1.11-1.91,1.96-3.32,2.55s-3.05.88-4.93.88c-2.79,0-5-.67-6.64-2.02-1.64-1.35-2.46-3.12-2.46-5.32Z"/><polygon class="cls-1" points="121.86 20.68 117.64 20.68 117.64 13.87 111.61 13.87 111.61 20.68 107.39 20.68 107.39 25.74 111.61 25.74 111.61 42.54 117.64 42.54 117.64 25.74 121.86 25.74 121.86 20.68"/><polygon class="cls-1" points="9.72 75.53 9.72 49.1 3.34 49.1 3.34 81.43 4.48 81.43 9.72 81.43 22.87 81.43 22.87 75.53 9.72 75.53"/><path class="cls-1" d="m33.12,82c-2.29,0-4.11-.63-5.45-1.89-1.35-1.26-2.02-2.93-2.02-5.01s.7-3.63,2.09-4.82c1.39-1.19,3.39-1.88,6-2.09l6.33-.53v-.4c0-.85-.17-1.55-.51-2.11-.34-.56-.81-.97-1.41-1.23-.6-.26-1.33-.4-2.18-.4-1.52,0-2.69.29-3.5.88-.81.59-1.21,1.42-1.21,2.51h-5.06c0-1.64.41-3.06,1.23-4.27.82-1.2,1.99-2.13,3.52-2.77,1.52-.65,3.3-.97,5.32-.97s3.76.36,5.21,1.08c1.45.72,2.56,1.79,3.32,3.21.76,1.42,1.14,3.16,1.14,5.21v13.02h-5.32l-.44-3.08c-.41,1.09-1.28,1.97-2.59,2.64-1.32.68-2.82,1.01-4.49,1.01Zm2.07-4.53c1.47,0,2.65-.4,3.56-1.19.91-.79,1.36-1.91,1.36-3.34v-1.19l-4,.35c-1.55.12-2.66.4-3.32.86-.66.46-.99,1.08-.99,1.87,0,.88.29,1.54.86,1.98s1.41.66,2.53.66Z"/><path class="cls-1" d="m56.18,81.43h-5.63v-32.94h6.03v13.94c.7-1.11,1.73-1.99,3.08-2.62,1.35-.63,2.83-.95,4.44-.95,2.05,0,3.83.5,5.34,1.5,1.51,1,2.67,2.38,3.47,4.13.81,1.76,1.21,3.83,1.21,6.2,0,2.23-.44,4.19-1.32,5.89-.88,1.7-2.1,3.03-3.67,3.98s-3.39,1.43-5.48,1.43c-1.58,0-3.01-.34-4.29-1.01-1.28-.67-2.22-1.57-2.84-2.68l-.35,3.12Zm.44-11.04c0,1.2.24,2.26.73,3.17.48.91,1.16,1.62,2.02,2.13.86.51,1.87.77,3.01.77s2.18-.26,3.01-.79,1.48-1.24,1.94-2.13c.45-.89.68-1.94.68-3.15s-.23-2.25-.68-3.14c-.45-.89-1.1-1.61-1.94-2.13s-1.84-.79-3.01-.79-2.15.26-3.01.77c-.87.51-1.54,1.22-2.02,2.11-.48.9-.73,1.96-.73,3.19Z"/><path class="cls-1" d="m76.68,74.97h5.72c.06.85.4,1.52,1.01,2.02.62.5,1.48.75,2.6.75,1.17,0,2.04-.21,2.62-.62s.86-.95.86-1.63c0-.44-.15-.84-.44-1.19-.29-.35-.89-.63-1.8-.84l-3.96-.88c-1.99-.47-3.48-1.19-4.46-2.16-.98-.97-1.47-2.38-1.47-4.22,0-1.47.39-2.72,1.17-3.76.78-1.04,1.83-1.84,3.17-2.4s2.87-.84,4.6-.84,3.14.29,4.4.88c1.26.59,2.25,1.42,2.97,2.51.72,1.09,1.08,2.36,1.08,3.83h-5.76c0-.85-.26-1.52-.77-2.02-.51-.5-1.24-.75-2.18-.75s-1.62.21-2.13.62c-.51.41-.77.97-.77,1.67,0,1.09.85,1.82,2.55,2.2l4,.88c1.85.41,3.24,1.08,4.18,2,.94.92,1.41,2.24,1.41,3.94,0,1.5-.4,2.8-1.21,3.92-.81,1.11-1.91,1.96-3.32,2.55s-3.05.88-4.93.88c-2.79,0-5-.67-6.64-2.02-1.64-1.35-2.46-3.12-2.46-5.32Z"/></svg>